<?xml version="1.0" standalone="no"?>
<!DOCTYPE svg PUBLIC "-//W3C//DTD SVG 20010904//EN"
 "http://www.w3.org/TR/2001/REC-SVG-20010904/DTD/svg10.dtd">
<svg version="1.0" xmlns="http://www.w3.org/2000/svg"
 width="454.000000pt" height="136.000000pt" viewBox="0 0 454.000000 136.000000"
 preserveAspectRatio="xMidYMid meet">

<g transform="translate(0.000000,136.000000) scale(0.100000,-0.100000)"
fill="#000000" stroke="none">
<path d="M360 748 c-287 -562 -325 -646 -304 -667 12 -12 319 -10 342 2 17 8
85 133 232 422 114 226 215 411 222 413 10 2 80 -130 216 -406 111 -225 209
-416 219 -423 17 -14 257 -24 315 -13 56 11 69 -18 -357 859 -48 99 -114 235
-146 303 l-58 122 -184 0 -184 0 -313 -612z"/>
<path d="M3529 1313 c0 -27 -1 -99 -1 -162 -1 -130 -4 -151 -26 -151 -13 0
-12 3 3 20 18 20 17 20 -116 20 l-134 0 -119 -150 c-66 -83 -122 -150 -125
-150 -4 0 -62 68 -129 150 l-123 150 -119 0 c-108 0 -139 -7 -111 -24 5 -3 7
-15 4 -25 -4 -15 39 -74 158 -221 90 -111 165 -207 167 -213 1 -7 -74 -107
-167 -223 -140 -175 -169 -216 -164 -235 4 -13 11 -27 17 -31 19 -13 199 -9
226 5 14 7 72 71 129 142 60 75 112 130 122 130 9 0 64 -58 128 -137 81 -100
118 -138 138 -142 66 -14 628 -11 743 4 239 31 384 100 445 212 25 46 27 56
23 146 -3 92 -6 102 -50 192 -26 52 -77 136 -115 185 -80 107 -306 336 -456
464 l-107 91 -120 0 -120 0 -1 -47z m417 -371 c268 -266 356 -441 268 -533
-59 -61 -192 -99 -350 -99 -73 0 -84 2 -85 18 -1 21 -1 711 0 735 1 9 7 17 15
17 7 0 76 -62 152 -138z m-421 -410 c-2 -222 -5 -405 -8 -408 -6 -6 -341 401
-345 419 -1 7 75 109 170 227 154 193 172 212 178 190 4 -14 6 -206 5 -428z"/>
<path d="M1474 1003 c-11 -58 12 -287 40 -397 14 -55 46 -142 72 -194 37 -78
60 -109 127 -176 91 -91 176 -140 302 -172 90 -23 345 -25 390 -3 l30 14 0
445 c0 245 -2 462 -4 482 l-3 38 -143 0 -143 0 -6 -67 c-3 -38 -6 -122 -5
-188 0 -66 0 -187 0 -268 l-1 -148 -22 6 c-211 62 -337 252 -338 510 0 44 -3
97 -6 118 l-7 37 -138 0 -138 0 -7 -37z"/>
</g>
</svg>
